<?xml version="1.0" encoding="UTF-8" standalone="no"?>
<svg xmlns:dc="http://purl.org/dc/elements/1.1/" xmlns:cc="http://creativecommons.org/ns#" xmlns:rdf="http://www.w3.org/1999/02/22-rdf-syntax-ns#" xmlns:svg="http://www.w3.org/2000/svg" xmlns="http://www.w3.org/2000/svg" viewBox="0 0 16.527 24.081" height="0.3344583in" width="0.22954in" y="0" x="0" id="Layer_1" version="1.1">
	<defs id="defs1229"/>
	<g id="breadboard">
		<rect height="1" width="2.1600001" fill="none" y="23.081003" x="0" id="connector0pin"/>
		<rect height="1" width="2.1600001" fill="none" y="23.081003" x="7.1810002" id="connector1pin"/>
		<rect height="1" width="2.1600001" fill="none" y="23.081003" x="14.367" id="connector2pin"/>
		<line stroke-width="2.16" fill="none" stroke="#8c8c8c" y2="31.259001" x2="1.08" y1="24.080999" x1="1.08" stroke-linecap="round" id="connector0leg"/>
		<line stroke-width="2.16" fill="none" stroke="#8c8c8c" y2="31.259001" x2="8.2609997" y1="24.080999" x1="8.2609997" stroke-linecap="round" id="connector1leg"/>
		<line stroke-width="2.16" fill="none" stroke="#8c8c8c" y2="31.259001" x2="15.447" y1="24.080999" x1="15.447" stroke-linecap="round" id="connector2leg"/>
		<rect height="9.3509998" width="2.154" fill="#8c8c8c" y="14.731" x="7.178" id="rect9506"/>
		<path d="m 3.287,14.731 v 3.316 c 0,0.424 -0.782,1.059 -1.198,1.425 -1.025,0.891 -2.088,1.819 -2.088,2.992 v 1.619 h 2.154 c 0,0 0,-1 0,-1.21 0,-0.517 0.904,-1.389 1.35,-1.769 0.997,-0.87 1.945,-1.69 1.945,-2.749 V 14.73 H 3.287 Z" fill="#8c8c8c" id="path9510"/>
		<path d="m 13.221,14.731 v 3.316 c 0,0.424 0.781,1.059 1.199,1.425 1.027,0.891 2.089,1.819 2.089,2.992 v 1.619 h -2.154 c 0,0 0,-1 0,-1.21 0,-0.517 -0.904,-1.389 -1.35,-1.769 -0.998,-0.87 -1.945,-1.69 -1.945,-2.749 V 14.73 h 2.161 z" fill="#8c8c8c" id="path9514"/>
		<rect height="10.07" width="13.278" fill="#1a1a1a" y="4.6589999" x="1.615" id="rect9553"/>
		<path d="m 13.889,4.659 v 2.453 8.228 1.842 c 0.632,-0.713 1.004,-1.553 1.004,-2.453 v 0 -10.07 z" fill="#141414" id="path9555"/>
		<path d="M 2.621,4.659 H 1.616 v 10.07 0 c 0,0.899 0.373,1.74 1.005,2.453 V 15.34 7.112 Z" fill="#242424" id="path9557"/>
		<path d="m 1.615,4.659 v 0 c 0,0.899 0.373,1.74 1.005,2.453 h 11.276 c 0.632,-0.713 1.005,-1.554 1.005,-2.453 v 0 H 1.615 Z" fill="#1f1f1f" id="path9559"/>
		<path d="M 8.255,0 C 4.587,0 1.615,2.086 1.615,4.661 H 14.893 C 14.893,2.086 11.923,0 8.255,0 Z" fill="#141414" id="path9561"/>
		<rect height="10.07" width="11.276" y="7.112" x="2.6210001" id="rect9563"/>
		<path style="stroke-width:0.999822" id="path1223" d="M 4.99,14.357039 V 8.9589996 h 2.1600156 v 1.0786084 h 1.0800078 v 1.079608 H 9.3110312 V 8.958 h 2.1590158 v 5.39804 H 9.3120312 V 13.277431 H 8.2310234 V 12.197823 H 7.1510156 v 2.160216 H 4.99 Z" fill="#999999"/>
	</g>
</svg>
